<svg width="176" height="46" viewBox="0 0 176 46" fill="none" xmlns="http://www.w3.org/2000/svg">
<rect width="176" height="46" rx="23" fill="#1E2757"/>
<path d="M22.3118 28H20.343L23.9276 17.8182H26.2045L29.794 28H27.8253L25.1058 19.9062H25.0263L22.3118 28ZM22.3764 24.0078H27.7457V25.4893H22.3764V24.0078ZM33.657 28.1342C33.0571 28.1342 32.5201 27.9801 32.0462 27.6719C31.5722 27.3636 31.1977 26.9162 30.9226 26.3295C30.6475 25.7429 30.5099 25.0303 30.5099 24.1918C30.5099 23.3433 30.6491 22.6274 30.9276 22.044C31.2093 21.4574 31.5888 21.0149 32.0661 20.7166C32.5433 20.415 33.0753 20.2642 33.6619 20.2642C34.1094 20.2642 34.4773 20.3404 34.7656 20.4929C35.054 20.642 35.2827 20.8227 35.4517 21.0348C35.6207 21.2436 35.7517 21.4408 35.8445 21.6264H35.919V17.8182H37.7237V28H35.9538V26.7969H35.8445C35.7517 26.9825 35.6174 27.1797 35.4418 27.3885C35.2661 27.594 35.0341 27.7696 34.7457 27.9155C34.4574 28.0613 34.0945 28.1342 33.657 28.1342ZM34.1591 26.6577C34.5402 26.6577 34.8651 26.5549 35.1335 26.3494C35.402 26.1406 35.6058 25.8506 35.745 25.4794C35.8842 25.1082 35.9538 24.6757 35.9538 24.1818C35.9538 23.688 35.8842 23.2588 35.745 22.8942C35.6091 22.5296 35.407 22.2462 35.1385 22.044C34.8733 21.8419 34.5469 21.7408 34.1591 21.7408C33.758 21.7408 33.4233 21.8452 33.1548 22.054C32.8864 22.2628 32.6842 22.5511 32.5483 22.919C32.4124 23.2869 32.3445 23.7079 32.3445 24.1818C32.3445 24.6591 32.4124 25.085 32.5483 25.4595C32.6875 25.8307 32.8913 26.1241 33.1598 26.3395C33.4316 26.5516 33.7647 26.6577 34.1591 26.6577ZM42.4753 28.1342C41.8754 28.1342 41.3385 27.9801 40.8645 27.6719C40.3906 27.3636 40.016 26.9162 39.7409 26.3295C39.4658 25.7429 39.3283 25.0303 39.3283 24.1918C39.3283 23.3433 39.4675 22.6274 39.7459 22.044C40.0276 21.4574 40.4071 21.0149 40.8844 20.7166C41.3617 20.415 41.8936 20.2642 42.4803 20.2642C42.9277 20.2642 43.2956 20.3404 43.584 20.4929C43.8723 20.642 44.101 20.8227 44.2701 21.0348C44.4391 21.2436 44.57 21.4408 44.6628 21.6264H44.7374V17.8182H46.5421V28H44.7722V26.7969H44.6628C44.57 26.9825 44.4358 27.1797 44.2601 27.3885C44.0845 27.594 43.8525 27.7696 43.5641 27.9155C43.2757 28.0613 42.9128 28.1342 42.4753 28.1342ZM42.9775 26.6577C43.3586 26.6577 43.6834 26.5549 43.9519 26.3494C44.2203 26.1406 44.4242 25.8506 44.5634 25.4794C44.7026 25.1082 44.7722 24.6757 44.7722 24.1818C44.7722 23.688 44.7026 23.2588 44.5634 22.8942C44.4275 22.5296 44.2253 22.2462 43.9569 22.044C43.6917 21.8419 43.3652 21.7408 42.9775 21.7408C42.5764 21.7408 42.2417 21.8452 41.9732 22.054C41.7047 22.2628 41.5025 22.5511 41.3667 22.919C41.2308 23.2869 41.1628 23.7079 41.1628 24.1818C41.1628 24.6591 41.2308 25.085 41.3667 25.4595C41.5059 25.8307 41.7097 26.1241 41.9782 26.3395C42.2499 26.5516 42.583 26.6577 42.9775 26.6577ZM52.0121 28V17.8182H55.8303C56.6125 17.8182 57.2687 17.964 57.799 18.2557C58.3326 18.5473 58.7353 18.9484 59.0071 19.4588C59.2822 19.9659 59.4197 20.5426 59.4197 21.1889C59.4197 21.8419 59.2822 22.4219 59.0071 22.929C58.732 23.4361 58.326 23.8355 57.7891 24.1271C57.2521 24.4155 56.5909 24.5597 55.8054 24.5597H53.2749V23.0433H55.5568C56.0142 23.0433 56.3887 22.9638 56.6804 22.8047C56.9721 22.6456 57.1875 22.4268 57.3267 22.1484C57.4692 21.87 57.5405 21.5502 57.5405 21.1889C57.5405 20.8277 57.4692 20.5095 57.3267 20.2344C57.1875 19.9593 56.9704 19.7455 56.6754 19.593C56.3838 19.4373 56.0076 19.3594 55.5469 19.3594H53.8565V28H52.0121ZM63.003 28.1541C62.5191 28.1541 62.0833 28.0679 61.6955 27.8956C61.311 27.7199 61.0061 27.4614 60.7807 27.12C60.5587 26.7786 60.4476 26.3577 60.4476 25.8572C60.4476 25.4264 60.5272 25.0701 60.6863 24.7884C60.8453 24.5066 61.0624 24.2812 61.3375 24.1122C61.6126 23.9432 61.9225 23.8156 62.2672 23.7294C62.6152 23.6399 62.9748 23.5753 63.3461 23.5355C63.7935 23.4891 64.1564 23.4477 64.4348 23.4112C64.7132 23.3714 64.9154 23.3118 65.0414 23.2322C65.1706 23.1494 65.2353 23.0218 65.2353 22.8494V22.8196C65.2353 22.4451 65.1242 22.1551 64.9022 21.9496C64.6801 21.7441 64.3603 21.6413 63.9426 21.6413C63.5018 21.6413 63.1522 21.7375 62.8936 21.9297C62.6384 22.1219 62.4661 22.349 62.3766 22.6108L60.6962 22.3722C60.8288 21.9081 61.0475 21.5204 61.3525 21.2088C61.6574 20.8939 62.0302 20.6586 62.4711 20.5028C62.9119 20.3438 63.3991 20.2642 63.9327 20.2642C64.3006 20.2642 64.6668 20.3073 65.0314 20.3935C65.396 20.4796 65.7291 20.6222 66.0307 20.821C66.3323 21.0166 66.5743 21.2834 66.7566 21.6214C66.9422 21.9595 67.035 22.3821 67.035 22.8892V28H65.3049V26.951H65.2452C65.1358 27.1631 64.9817 27.362 64.7828 27.5476C64.5873 27.7299 64.3404 27.8774 64.0421 27.9901C63.7471 28.0994 63.4007 28.1541 63.003 28.1541ZM63.4703 26.8317C63.8316 26.8317 64.1448 26.7604 64.41 26.6179C64.6751 26.4721 64.879 26.2798 65.0215 26.0412C65.1673 25.8026 65.2402 25.5424 65.2402 25.2607V24.3608C65.1839 24.4072 65.0878 24.4503 64.9519 24.4901C64.8193 24.5298 64.6702 24.5646 64.5044 24.5945C64.3387 24.6243 64.1747 24.6508 64.0123 24.674C63.8498 24.6972 63.709 24.7171 63.5897 24.7337C63.3212 24.7701 63.0809 24.8298 62.8688 24.9126C62.6567 24.9955 62.4893 25.1115 62.3667 25.2607C62.244 25.4065 62.1827 25.5954 62.1827 25.8274C62.1827 26.1589 62.3037 26.4091 62.5456 26.5781C62.7876 26.7472 63.0958 26.8317 63.4703 26.8317ZM68.8446 28V20.3636H70.5897V21.6364H70.6692C70.8084 21.1955 71.0471 20.8558 71.3851 20.6172C71.7265 20.3752 72.1159 20.2543 72.5534 20.2543C72.6529 20.2543 72.7639 20.2592 72.8865 20.2692C73.0125 20.2758 73.1169 20.2874 73.1998 20.304V21.9595C73.1235 21.933 73.0025 21.9098 72.8368 21.8899C72.6744 21.8667 72.517 21.8551 72.3645 21.8551C72.0364 21.8551 71.7414 21.9264 71.4796 22.0689C71.2211 22.2081 71.0172 22.402 70.8681 22.6506C70.7189 22.8991 70.6444 23.1858 70.6444 23.5107V28H68.8446ZM78.6188 20.3636V21.7557H74.2289V20.3636H78.6188ZM75.3127 18.5341H77.1124V25.7031C77.1124 25.9451 77.1489 26.1307 77.2218 26.2599C77.298 26.3859 77.3974 26.4721 77.5201 26.5185C77.6427 26.5649 77.7786 26.5881 77.9277 26.5881C78.0404 26.5881 78.1432 26.5798 78.236 26.5632C78.3321 26.5466 78.405 26.5317 78.4547 26.5185L78.758 27.9254C78.6619 27.9586 78.5243 27.995 78.3453 28.0348C78.1697 28.0746 77.9542 28.0978 77.699 28.1044C77.2483 28.1177 76.8423 28.0497 76.481 27.9006C76.1197 27.7481 75.833 27.5128 75.6209 27.1946C75.4121 26.8764 75.3094 26.4787 75.3127 26.0014V18.5341ZM80.1239 28V20.3636H81.9237V28H80.1239ZM81.0288 19.2798C80.7437 19.2798 80.4985 19.1854 80.293 18.9964C80.0875 18.8042 79.9847 18.5739 79.9847 18.3054C79.9847 18.0336 80.0875 17.8033 80.293 17.6143C80.4985 17.4221 80.7437 17.326 81.0288 17.326C81.3171 17.326 81.5624 17.4221 81.7646 17.6143C81.9701 17.8033 82.0728 18.0336 82.0728 18.3054C82.0728 18.5739 81.9701 18.8042 81.7646 18.9964C81.5624 19.1854 81.3171 19.2798 81.0288 19.2798ZM87.1053 28.1491C86.343 28.1491 85.6884 27.9818 85.1415 27.647C84.598 27.3123 84.1787 26.8499 83.8837 26.2599C83.592 25.6667 83.4462 24.9839 83.4462 24.2116C83.4462 23.4361 83.5953 22.7517 83.8936 22.1584C84.1919 21.5618 84.6129 21.0978 85.1564 20.7663C85.7033 20.4316 86.3496 20.2642 87.0953 20.2642C87.7151 20.2642 88.2637 20.3786 88.7409 20.6072C89.2215 20.8326 89.6043 21.1525 89.8894 21.5668C90.1744 21.9777 90.3368 22.4583 90.3766 23.0085H88.6564C88.5868 22.6406 88.4211 22.334 88.1593 22.0888C87.9007 21.8402 87.5544 21.7159 87.1202 21.7159C86.7523 21.7159 86.4292 21.8153 86.1507 22.0142C85.8723 22.2098 85.6552 22.4915 85.4995 22.8594C85.347 23.2273 85.2708 23.6681 85.2708 24.1818C85.2708 24.7022 85.347 25.1496 85.4995 25.5241C85.6519 25.8954 85.8657 26.1821 86.1408 26.3842C86.4192 26.5831 86.7457 26.6825 87.1202 26.6825C87.3854 26.6825 87.6223 26.6328 87.8311 26.5334C88.0433 26.4306 88.2206 26.2831 88.3631 26.0909C88.5056 25.8987 88.6034 25.665 88.6564 25.3899H90.3766C90.3335 25.9302 90.1744 26.4091 89.8993 26.8267C89.6242 27.241 89.2497 27.5658 88.7757 27.8011C88.3018 28.0331 87.745 28.1491 87.1053 28.1491ZM91.8544 28V20.3636H93.6541V28H91.8544ZM92.7592 19.2798C92.4742 19.2798 92.2289 19.1854 92.0234 18.9964C91.8179 18.8042 91.7152 18.5739 91.7152 18.3054C91.7152 18.0336 91.8179 17.8033 92.0234 17.6143C92.2289 17.4221 92.4742 17.326 92.7592 17.326C93.0476 17.326 93.2929 17.4221 93.495 17.6143C93.7005 17.8033 93.8033 18.0336 93.8033 18.3054C93.8033 18.5739 93.7005 18.8042 93.495 18.9964C93.2929 19.1854 93.0476 19.2798 92.7592 19.2798ZM95.5048 30.8636V20.3636H97.2747V21.6264H97.3791C97.4719 21.4408 97.6028 21.2436 97.7718 21.0348C97.9409 20.8227 98.1696 20.642 98.4579 20.4929C98.7463 20.3404 99.1142 20.2642 99.5616 20.2642C100.152 20.2642 100.684 20.415 101.157 20.7166C101.635 21.0149 102.013 21.4574 102.291 22.044C102.573 22.6274 102.714 23.3433 102.714 24.1918C102.714 25.0303 102.576 25.7429 102.301 26.3295C102.026 26.9162 101.651 27.3636 101.177 27.6719C100.703 27.9801 100.166 28.1342 99.5666 28.1342C99.1291 28.1342 98.7662 28.0613 98.4778 27.9155C98.1895 27.7696 97.9574 27.594 97.7818 27.3885C97.6094 27.1797 97.4752 26.9825 97.3791 26.7969H97.3045V30.8636H95.5048ZM97.2697 24.1818C97.2697 24.6757 97.3393 25.1082 97.4785 25.4794C97.621 25.8506 97.8249 26.1406 98.09 26.3494C98.3585 26.5549 98.6833 26.6577 99.0645 26.6577C99.4622 26.6577 99.7953 26.5516 100.064 26.3395C100.332 26.1241 100.534 25.8307 100.67 25.4595C100.809 25.085 100.879 24.6591 100.879 24.1818C100.879 23.7079 100.811 23.2869 100.675 22.919C100.539 22.5511 100.337 22.2628 100.069 22.054C99.8002 21.8452 99.4655 21.7408 99.0645 21.7408C98.68 21.7408 98.3535 21.8419 98.085 22.044C97.8166 22.2462 97.6127 22.5296 97.4735 22.8942C97.3377 23.2588 97.2697 23.688 97.2697 24.1818ZM106.452 28.1541C105.968 28.1541 105.532 28.0679 105.145 27.8956C104.76 27.7199 104.455 27.4614 104.23 27.12C104.008 26.7786 103.897 26.3577 103.897 25.8572C103.897 25.4264 103.976 25.0701 104.135 24.7884C104.295 24.5066 104.512 24.2812 104.787 24.1122C105.062 23.9432 105.372 23.8156 105.716 23.7294C106.064 23.6399 106.424 23.5753 106.795 23.5355C107.243 23.4891 107.606 23.4477 107.884 23.4112C108.162 23.3714 108.365 23.3118 108.491 23.2322C108.62 23.1494 108.684 23.0218 108.684 22.8494V22.8196C108.684 22.4451 108.573 22.1551 108.351 21.9496C108.129 21.7441 107.809 21.6413 107.392 21.6413C106.951 21.6413 106.601 21.7375 106.343 21.9297C106.088 22.1219 105.915 22.349 105.826 22.6108L104.145 22.3722C104.278 21.9081 104.497 21.5204 104.802 21.2088C105.107 20.8939 105.479 20.6586 105.92 20.5028C106.361 20.3438 106.848 20.2642 107.382 20.2642C107.75 20.2642 108.116 20.3073 108.481 20.3935C108.845 20.4796 109.178 20.6222 109.48 20.821C109.782 21.0166 110.023 21.2834 110.206 21.6214C110.391 21.9595 110.484 22.3821 110.484 22.8892V28H108.754V26.951H108.694C108.585 27.1631 108.431 27.362 108.232 27.5476C108.037 27.7299 107.79 27.8774 107.491 27.9901C107.196 28.0994 106.85 28.1541 106.452 28.1541ZM106.92 26.8317C107.281 26.8317 107.594 26.7604 107.859 26.6179C108.124 26.4721 108.328 26.2798 108.471 26.0412C108.617 25.8026 108.689 25.5424 108.689 25.2607V24.3608C108.633 24.4072 108.537 24.4503 108.401 24.4901C108.269 24.5298 108.119 24.5646 107.954 24.5945C107.788 24.6243 107.624 24.6508 107.461 24.674C107.299 24.6972 107.158 24.7171 107.039 24.7337C106.77 24.7701 106.53 24.8298 106.318 24.9126C106.106 24.9955 105.939 25.1115 105.816 25.2607C105.693 25.4065 105.632 25.5954 105.632 25.8274C105.632 26.1589 105.753 26.4091 105.995 26.5781C106.237 26.7472 106.545 26.8317 106.92 26.8317ZM114.094 23.5256V28H112.294V20.3636H114.014V21.6612H114.104C114.279 21.2337 114.559 20.8939 114.944 20.642C115.331 20.3902 115.81 20.2642 116.381 20.2642C116.907 20.2642 117.367 20.3769 117.758 20.6023C118.152 20.8277 118.457 21.1541 118.672 21.5817C118.891 22.0092 118.999 22.5279 118.996 23.1378V28H117.196V23.4162C117.196 22.9058 117.063 22.5064 116.798 22.218C116.536 21.9297 116.173 21.7855 115.709 21.7855C115.394 21.7855 115.114 21.8551 114.869 21.9943C114.627 22.1302 114.437 22.3274 114.297 22.5859C114.162 22.8445 114.094 23.1577 114.094 23.5256ZM124.638 20.3636V21.7557H120.248V20.3636H124.638ZM121.332 18.5341H123.132V25.7031C123.132 25.9451 123.168 26.1307 123.241 26.2599C123.318 26.3859 123.417 26.4721 123.54 26.5185C123.662 26.5649 123.798 26.5881 123.947 26.5881C124.06 26.5881 124.163 26.5798 124.256 26.5632C124.352 26.5466 124.425 26.5317 124.474 26.5185L124.778 27.9254C124.681 27.9586 124.544 27.995 124.365 28.0348C124.189 28.0746 123.974 28.0978 123.719 28.1044C123.268 28.1177 122.862 28.0497 122.501 27.9006C122.139 27.7481 121.853 27.5128 121.64 27.1946C121.432 26.8764 121.329 26.4787 121.332 26.0014V18.5341Z" fill="#1A71FF"/>
<path d="M146 22C148.301 22 150.166 20.1345 150.166 17.8333C150.166 15.5321 148.301 13.6667 146 13.6667C143.698 13.6667 141.833 15.5321 141.833 17.8333C141.833 20.1345 143.698 22 146 22Z" stroke="#1A71FF" stroke-width="1.5" stroke-linecap="round" stroke-linejoin="round"/>
<path d="M138.842 30.3333C138.842 27.1083 142.05 24.5 146 24.5C146.8 24.5 147.575 24.6083 148.3 24.8083" stroke="#1A71FF" stroke-width="1.5" stroke-linecap="round" stroke-linejoin="round"/>
<path d="M154.334 27C154.334 27.2667 154.3 27.525 154.234 27.775C154.159 28.1083 154.025 28.4333 153.85 28.7167C153.275 29.6833 152.217 30.3333 151 30.3333C150.142 30.3333 149.367 30.0083 148.784 29.475C148.534 29.2583 148.317 29 148.15 28.7167C147.842 28.2167 147.667 27.625 147.667 27C147.667 26.1 148.025 25.275 148.609 24.675C149.217 24.05 150.067 23.6667 151 23.6667C151.984 23.6667 152.875 24.0917 153.475 24.775C154.009 25.3667 154.334 26.15 154.334 27Z" stroke="#1A71FF" stroke-width="1.5" stroke-miterlimit="10" stroke-linecap="round" stroke-linejoin="round"/>
<path d="M152.242 26.9833H149.759" stroke="#1A71FF" stroke-width="1.5" stroke-miterlimit="10" stroke-linecap="round" stroke-linejoin="round"/>
<path d="M151 25.7667V28.2584" stroke="#1A71FF" stroke-width="1.5" stroke-miterlimit="10" stroke-linecap="round" stroke-linejoin="round"/>
</svg>
