<svg width="145" height="60" viewBox="0 0 145 60" fill="none" xmlns="http://www.w3.org/2000/svg">
<rect width="145" height="60" rx="30" fill="#FF4949"/>
<path d="M38.2912 37V23.9091H46.8054V25.897H40.6626V29.451H46.3643V31.4389H40.6626V35.0121H46.8565V37H38.2912ZM51.4364 31.2472V37H49.1225V27.1818H51.3342V28.8501H51.4492C51.6751 28.3004 52.0352 27.8636 52.5295 27.5398C53.0281 27.2159 53.6438 27.054 54.3768 27.054C55.0543 27.054 55.6445 27.1989 56.1474 27.4886C56.6545 27.7784 57.0465 28.1982 57.3235 28.7479C57.6048 29.2976 57.7433 29.9645 57.739 30.7486V37H55.4251V31.1065C55.4251 30.4503 55.2546 29.9368 54.9137 29.5661C54.5771 29.1953 54.1104 29.0099 53.5138 29.0099C53.109 29.0099 52.7489 29.0994 52.4336 29.2784C52.1225 29.4531 51.8775 29.7067 51.6985 30.0391C51.5238 30.3714 51.4364 30.7741 51.4364 31.2472ZM63.7347 37.1726C62.9634 37.1726 62.2731 36.9744 61.6637 36.5781C61.0543 36.1818 60.5728 35.6065 60.2191 34.8523C59.8654 34.098 59.6886 33.1818 59.6886 32.1037C59.6886 31.0128 59.8675 30.0923 60.2255 29.3423C60.5877 28.5881 61.0756 28.0192 61.6893 27.6357C62.3029 27.2479 62.9869 27.054 63.7411 27.054C64.3164 27.054 64.7894 27.152 65.1602 27.348C65.5309 27.5398 65.8249 27.772 66.0423 28.0447C66.2596 28.3132 66.4279 28.5668 66.5472 28.8054H66.6431V23.9091H68.9634V37H66.6879V35.4531H66.5472C66.4279 35.6918 66.2553 35.9453 66.0295 36.2138C65.8036 36.478 65.5053 36.7038 65.1346 36.8913C64.7638 37.0788 64.2972 37.1726 63.7347 37.1726ZM64.3803 35.2741C64.8704 35.2741 65.288 35.142 65.6332 34.8778C65.9783 34.6094 66.2404 34.2365 66.4194 33.7592C66.5984 33.282 66.6879 32.7259 66.6879 32.0909C66.6879 31.456 66.5984 30.9041 66.4194 30.4354C66.2447 29.9666 65.9847 29.6023 65.6396 29.3423C65.2987 29.0824 64.8789 28.9524 64.3803 28.9524C63.8647 28.9524 63.4343 29.0866 63.0891 29.3551C62.744 29.6236 62.484 29.9943 62.3093 30.4673C62.1346 30.9403 62.0472 31.4815 62.0472 32.0909C62.0472 32.7045 62.1346 33.2521 62.3093 33.7337C62.4883 34.2109 62.7504 34.5881 63.0955 34.8651C63.445 35.1378 63.8732 35.2741 64.3803 35.2741ZM87.2015 28.326H84.8109C84.7427 27.9339 84.617 27.5866 84.4338 27.2841C84.2505 26.9773 84.0225 26.7173 83.7498 26.5043C83.4771 26.2912 83.166 26.1314 82.8166 26.0249C82.4714 25.9141 82.0985 25.8587 81.698 25.8587C80.9863 25.8587 80.3556 26.0376 79.8059 26.3956C79.2562 26.7493 78.8258 27.2692 78.5147 27.9553C78.2037 28.6371 78.0481 29.4702 78.0481 30.4545C78.0481 31.456 78.2037 32.2997 78.5147 32.9858C78.8301 33.6676 79.2605 34.1832 79.8059 34.5327C80.3556 34.8778 80.9842 35.0504 81.6916 35.0504C82.0836 35.0504 82.4501 34.9993 82.791 34.897C83.1362 34.7905 83.4451 34.6349 83.7179 34.4304C83.9949 34.2259 84.2271 33.9744 84.4146 33.6761C84.6064 33.3778 84.7385 33.0369 84.8109 32.6534L87.2015 32.6662C87.112 33.2884 86.9181 33.8722 86.6199 34.4176C86.3258 34.9631 85.9402 35.4446 85.4629 35.8622C84.9856 36.2756 84.4274 36.5994 83.7882 36.8338C83.149 37.0639 82.4395 37.179 81.6596 37.179C80.5091 37.179 79.4821 36.9126 78.5787 36.38C77.6752 35.8473 76.9636 35.0781 76.4437 34.0724C75.9238 33.0668 75.6639 31.8608 75.6639 30.4545C75.6639 29.044 75.926 27.8381 76.4501 26.8366C76.9743 25.831 77.688 25.0618 78.5914 24.5291C79.4949 23.9964 80.5176 23.7301 81.6596 23.7301C82.3883 23.7301 83.0659 23.8324 83.6923 24.0369C84.3187 24.2415 84.877 24.5419 85.367 24.9382C85.8571 25.3303 86.2598 25.8118 86.5751 26.3828C86.8947 26.9496 87.1035 27.5973 87.2015 28.326ZM92.0962 37.1982C91.4741 37.1982 90.9137 37.0874 90.4151 36.8658C89.9208 36.6399 89.5288 36.3075 89.239 35.8686C88.9535 35.4297 88.8107 34.8885 88.8107 34.245C88.8107 33.6911 88.913 33.233 89.1175 32.8707C89.3221 32.5085 89.6012 32.2188 89.9549 32.0014C90.3086 31.7841 90.707 31.62 91.1502 31.5092C91.5977 31.3942 92.06 31.3111 92.5373 31.2599C93.1126 31.2003 93.5792 31.147 93.9371 31.1001C94.2951 31.049 94.555 30.9723 94.717 30.87C94.8832 30.7635 94.9663 30.5994 94.9663 30.3778V30.3395C94.9663 29.858 94.8235 29.4851 94.538 29.2209C94.2525 28.9567 93.8413 28.8246 93.3043 28.8246C92.7376 28.8246 92.288 28.9482 91.9556 29.1953C91.6275 29.4425 91.4059 29.7344 91.2908 30.071L89.1303 29.7642C89.3008 29.1676 89.582 28.669 89.9741 28.2685C90.3661 27.8636 90.8455 27.5611 91.4123 27.3608C91.979 27.1562 92.6055 27.054 93.2915 27.054C93.7646 27.054 94.2354 27.1094 94.7042 27.2202C95.1729 27.331 95.6012 27.5142 95.989 27.7699C96.3768 28.0213 96.6879 28.3643 96.9222 28.799C97.1609 29.2337 97.2802 29.777 97.2802 30.429V37H95.0558V35.6513H94.979C94.8384 35.924 94.6403 36.1797 94.3846 36.4183C94.1332 36.6527 93.8157 36.8423 93.4322 36.9872C93.0529 37.1278 92.6076 37.1982 92.0962 37.1982ZM92.6971 35.4979C93.1616 35.4979 93.5643 35.4062 93.9052 35.223C94.2461 35.0355 94.5082 34.7884 94.6914 34.4815C94.8789 34.1747 94.9727 33.8402 94.9727 33.478V32.321C94.9002 32.3807 94.7766 32.4361 94.6019 32.4872C94.4315 32.5384 94.2397 32.5831 94.0266 32.6214C93.8136 32.6598 93.6026 32.6939 93.3938 32.7237C93.185 32.7536 93.0039 32.7791 92.8505 32.8004C92.5053 32.8473 92.1964 32.924 91.9237 33.0305C91.6509 33.1371 91.4357 33.2862 91.2781 33.478C91.1204 33.6655 91.0415 33.9084 91.0415 34.2067C91.0415 34.6328 91.1971 34.9545 91.5082 35.1719C91.8192 35.3892 92.2156 35.4979 92.6971 35.4979ZM101.921 23.9091V37H99.6069V23.9091H101.921ZM106.614 23.9091V37H104.3V23.9091H106.614Z" fill="white"/>
</svg>
