<svg width="160" height="46" viewBox="0 0 160 46" fill="none" xmlns="http://www.w3.org/2000/svg">
<rect width="160" height="46" rx="23" fill="#1E2757"/>
<path d="M22.3665 17.8182L25.0163 25.8324H25.1207L27.7656 17.8182H29.794L26.2045 28H23.9276L20.343 17.8182H22.3665ZM31.0556 28V20.3636H32.8553V28H31.0556ZM31.9604 19.2798C31.6754 19.2798 31.4301 19.1854 31.2246 18.9964C31.0191 18.8042 30.9164 18.5739 30.9164 18.3054C30.9164 18.0336 31.0191 17.8033 31.2246 17.6143C31.4301 17.4221 31.6754 17.326 31.9604 17.326C32.2488 17.326 32.494 17.4221 32.6962 17.6143C32.9017 17.8033 33.0044 18.0336 33.0044 18.3054C33.0044 18.5739 32.9017 18.8042 32.6962 18.9964C32.494 19.1854 32.2488 19.2798 31.9604 19.2798ZM38.0866 28.1491C37.321 28.1491 36.6598 27.9901 36.103 27.6719C35.5495 27.3504 35.1236 26.8963 34.8253 26.3097C34.527 25.7197 34.3778 25.0253 34.3778 24.2266C34.3778 23.4411 34.527 22.7517 34.8253 22.1584C35.1269 21.5618 35.5478 21.0978 36.0881 20.7663C36.6283 20.4316 37.263 20.2642 37.9922 20.2642C38.4628 20.2642 38.907 20.3404 39.3246 20.4929C39.7455 20.642 40.1167 20.8741 40.4382 21.1889C40.763 21.5038 41.0182 21.9048 41.2038 22.392C41.3894 22.8759 41.4822 23.4527 41.4822 24.1222V24.674H35.223V23.4609H39.7571C39.7538 23.1162 39.6792 22.8097 39.5334 22.5412C39.3875 22.2694 39.1837 22.0556 38.9219 21.8999C38.6634 21.7441 38.3617 21.6662 38.017 21.6662C37.6491 21.6662 37.326 21.7557 37.0476 21.9347C36.7692 22.1103 36.5521 22.3423 36.3963 22.6307C36.2438 22.9157 36.166 23.2289 36.1626 23.5703V24.6293C36.1626 25.0734 36.2438 25.4545 36.4062 25.7727C36.5687 26.0876 36.7957 26.3295 37.0874 26.4986C37.379 26.6643 37.7204 26.7472 38.1115 26.7472C38.3733 26.7472 38.6103 26.7107 38.8224 26.6378C39.0346 26.5616 39.2185 26.4505 39.3743 26.3047C39.5301 26.1589 39.6477 25.9782 39.7273 25.7628L41.4077 25.9517C41.3016 26.3958 41.0994 26.7836 40.8011 27.1151C40.5062 27.4432 40.1283 27.6984 39.6676 27.8807C39.2069 28.0597 38.6799 28.1491 38.0866 28.1491ZM44.5398 28L42.3821 20.3636H44.2166L45.5589 25.733H45.6286L47.0007 20.3636H48.8153L50.1875 25.7031H50.2621L51.5845 20.3636H53.424L51.2614 28H49.3871L47.9553 22.8395H47.8509L46.419 28H44.5398ZM58.2328 28V17.8182H62.051C62.8332 17.8182 63.4894 17.964 64.0197 18.2557C64.5533 18.5473 64.956 18.9484 65.2278 19.4588C65.5029 19.9659 65.6404 20.5426 65.6404 21.1889C65.6404 21.8419 65.5029 22.4219 65.2278 22.929C64.9527 23.4361 64.5467 23.8355 64.0098 24.1271C63.4728 24.4155 62.8116 24.5597 62.0261 24.5597H59.4956V23.0433H61.7775C62.2349 23.0433 62.6094 22.9638 62.9011 22.8047C63.1928 22.6456 63.4082 22.4268 63.5474 22.1484C63.6899 21.87 63.7612 21.5502 63.7612 21.1889C63.7612 20.8277 63.6899 20.5095 63.5474 20.2344C63.4082 19.9593 63.1911 19.7455 62.8961 19.593C62.6045 19.4373 62.2283 19.3594 61.7676 19.3594H60.0772V28H58.2328ZM69.2237 28.1541C68.7398 28.1541 68.304 28.0679 67.9162 27.8956C67.5317 27.7199 67.2268 27.4614 67.0014 27.12C66.7794 26.7786 66.6683 26.3577 66.6683 25.8572C66.6683 25.4264 66.7479 25.0701 66.907 24.7884C67.0661 24.5066 67.2831 24.2812 67.5582 24.1122C67.8333 23.9432 68.1432 23.8156 68.4879 23.7294C68.8359 23.6399 69.1955 23.5753 69.5668 23.5355C70.0142 23.4891 70.3771 23.4477 70.6555 23.4112C70.9339 23.3714 71.1361 23.3118 71.2621 23.2322C71.3913 23.1494 71.456 23.0218 71.456 22.8494V22.8196C71.456 22.4451 71.3449 22.1551 71.1229 21.9496C70.9008 21.7441 70.581 21.6413 70.1634 21.6413C69.7225 21.6413 69.3729 21.7375 69.1143 21.9297C68.8591 22.1219 68.6868 22.349 68.5973 22.6108L66.9169 22.3722C67.0495 21.9081 67.2682 21.5204 67.5732 21.2088C67.8781 20.8939 68.2509 20.6586 68.6918 20.5028C69.1326 20.3438 69.6198 20.2642 70.1534 20.2642C70.5213 20.2642 70.8875 20.3073 71.2521 20.3935C71.6167 20.4796 71.9498 20.6222 72.2514 20.821C72.553 21.0166 72.795 21.2834 72.9773 21.6214C73.1629 21.9595 73.2557 22.3821 73.2557 22.8892V28H71.5256V26.951H71.4659C71.3565 27.1631 71.2024 27.362 71.0036 27.5476C70.808 27.7299 70.5611 27.8774 70.2628 27.9901C69.9678 28.0994 69.6214 28.1541 69.2237 28.1541ZM69.6911 26.8317C70.0523 26.8317 70.3655 26.7604 70.6307 26.6179C70.8958 26.4721 71.0997 26.2798 71.2422 26.0412C71.388 25.8026 71.4609 25.5424 71.4609 25.2607V24.3608C71.4046 24.4072 71.3085 24.4503 71.1726 24.4901C71.04 24.5298 70.8909 24.5646 70.7251 24.5945C70.5594 24.6243 70.3954 24.6508 70.233 24.674C70.0705 24.6972 69.9297 24.7171 69.8104 24.7337C69.5419 24.7701 69.3016 24.8298 69.0895 24.9126C68.8774 24.9955 68.71 25.1115 68.5874 25.2607C68.4647 25.4065 68.4034 25.5954 68.4034 25.8274C68.4034 26.1589 68.5244 26.4091 68.7663 26.5781C69.0083 26.7472 69.3165 26.8317 69.6911 26.8317ZM75.0653 28V20.3636H76.8104V21.6364H76.8899C77.0291 21.1955 77.2678 20.8558 77.6058 20.6172C77.9472 20.3752 78.3366 20.2543 78.7741 20.2543C78.8736 20.2543 78.9846 20.2592 79.1072 20.2692C79.2332 20.2758 79.3376 20.2874 79.4205 20.304V21.9595C79.3442 21.933 79.2232 21.9098 79.0575 21.8899C78.8951 21.8667 78.7377 21.8551 78.5852 21.8551C78.2571 21.8551 77.9621 21.9264 77.7003 22.0689C77.4418 22.2081 77.2379 22.402 77.0888 22.6506C76.9396 22.8991 76.8651 23.1858 76.8651 23.5107V28H75.0653ZM84.8395 20.3636V21.7557H80.4496V20.3636H84.8395ZM81.5334 18.5341H83.3331V25.7031C83.3331 25.9451 83.3696 26.1307 83.4425 26.2599C83.5187 26.3859 83.6181 26.4721 83.7408 26.5185C83.8634 26.5649 83.9993 26.5881 84.1484 26.5881C84.2611 26.5881 84.3639 26.5798 84.4567 26.5632C84.5528 26.5466 84.6257 26.5317 84.6754 26.5185L84.9787 27.9254C84.8826 27.9586 84.745 27.995 84.5661 28.0348C84.3904 28.0746 84.175 28.0978 83.9197 28.1044C83.469 28.1177 83.063 28.0497 82.7017 27.9006C82.3404 27.7481 82.0537 27.5128 81.8416 27.1946C81.6328 26.8764 81.5301 26.4787 81.5334 26.0014V18.5341ZM86.3446 28V20.3636H88.1444V28H86.3446ZM87.2495 19.2798C86.9644 19.2798 86.7192 19.1854 86.5137 18.9964C86.3082 18.8042 86.2054 18.5739 86.2054 18.3054C86.2054 18.0336 86.3082 17.8033 86.5137 17.6143C86.7192 17.4221 86.9644 17.326 87.2495 17.326C87.5378 17.326 87.7831 17.4221 87.9853 17.6143C88.1908 17.8033 88.2935 18.0336 88.2935 18.3054C88.2935 18.5739 88.1908 18.8042 87.9853 18.9964C87.7831 19.1854 87.5378 19.2798 87.2495 19.2798ZM93.326 28.1491C92.5637 28.1491 91.9091 27.9818 91.3622 27.647C90.8187 27.3123 90.3994 26.8499 90.1044 26.2599C89.8127 25.6667 89.6669 24.9839 89.6669 24.2116C89.6669 23.4361 89.8161 22.7517 90.1143 22.1584C90.4126 21.5618 90.8336 21.0978 91.3771 20.7663C91.924 20.4316 92.5703 20.2642 93.3161 20.2642C93.9358 20.2642 94.4844 20.3786 94.9616 20.6072C95.4422 20.8326 95.825 21.1525 96.1101 21.5668C96.3951 21.9777 96.5575 22.4583 96.5973 23.0085H94.8771C94.8075 22.6406 94.6418 22.334 94.38 22.0888C94.1214 21.8402 93.7751 21.7159 93.3409 21.7159C92.973 21.7159 92.6499 21.8153 92.3714 22.0142C92.093 22.2098 91.8759 22.4915 91.7202 22.8594C91.5677 23.2273 91.4915 23.6681 91.4915 24.1818C91.4915 24.7022 91.5677 25.1496 91.7202 25.5241C91.8726 25.8954 92.0864 26.1821 92.3615 26.3842C92.6399 26.5831 92.9664 26.6825 93.3409 26.6825C93.6061 26.6825 93.843 26.6328 94.0518 26.5334C94.264 26.4306 94.4413 26.2831 94.5838 26.0909C94.7263 25.8987 94.8241 25.665 94.8771 25.3899H96.5973C96.5542 25.9302 96.3951 26.4091 96.12 26.8267C95.8449 27.241 95.4704 27.5658 94.9964 27.8011C94.5225 28.0331 93.9657 28.1491 93.326 28.1491ZM98.0751 28V20.3636H99.8748V28H98.0751ZM98.9799 19.2798C98.6949 19.2798 98.4496 19.1854 98.2441 18.9964C98.0386 18.8042 97.9359 18.5739 97.9359 18.3054C97.9359 18.0336 98.0386 17.8033 98.2441 17.6143C98.4496 17.4221 98.6949 17.326 98.9799 17.326C99.2683 17.326 99.5136 17.4221 99.7157 17.6143C99.9212 17.8033 100.024 18.0336 100.024 18.3054C100.024 18.5739 99.9212 18.8042 99.7157 18.9964C99.5136 19.1854 99.2683 19.2798 98.9799 19.2798ZM101.725 30.8636V20.3636H103.495V21.6264H103.6C103.693 21.4408 103.824 21.2436 103.993 21.0348C104.162 20.8227 104.39 20.642 104.679 20.4929C104.967 20.3404 105.335 20.2642 105.782 20.2642C106.372 20.2642 106.904 20.415 107.378 20.7166C107.855 21.0149 108.233 21.4574 108.512 22.044C108.793 22.6274 108.934 23.3433 108.934 24.1918C108.934 25.0303 108.797 25.7429 108.522 26.3295C108.247 26.9162 107.872 27.3636 107.398 27.6719C106.924 27.9801 106.387 28.1342 105.787 28.1342C105.35 28.1342 104.987 28.0613 104.699 27.9155C104.41 27.7696 104.178 27.594 104.002 27.3885C103.83 27.1797 103.696 26.9825 103.6 26.7969H103.525V30.8636H101.725ZM103.49 24.1818C103.49 24.6757 103.56 25.1082 103.699 25.4794C103.842 25.8506 104.046 26.1406 104.311 26.3494C104.579 26.5549 104.904 26.6577 105.285 26.6577C105.683 26.6577 106.016 26.5516 106.284 26.3395C106.553 26.1241 106.755 25.8307 106.891 25.4595C107.03 25.085 107.1 24.6591 107.1 24.1818C107.1 23.7079 107.032 23.2869 106.896 22.919C106.76 22.5511 106.558 22.2628 106.289 22.054C106.021 21.8452 105.686 21.7408 105.285 21.7408C104.901 21.7408 104.574 21.8419 104.306 22.044C104.037 22.2462 103.833 22.5296 103.694 22.8942C103.558 23.2588 103.49 23.688 103.49 24.1818ZM112.673 28.1541C112.189 28.1541 111.753 28.0679 111.365 27.8956C110.981 27.7199 110.676 27.4614 110.451 27.12C110.229 26.7786 110.118 26.3577 110.118 25.8572C110.118 25.4264 110.197 25.0701 110.356 24.7884C110.515 24.5066 110.732 24.2812 111.007 24.1122C111.283 23.9432 111.592 23.8156 111.937 23.7294C112.285 23.6399 112.645 23.5753 113.016 23.5355C113.463 23.4891 113.826 23.4477 114.105 23.4112C114.383 23.3714 114.585 23.3118 114.711 23.2322C114.841 23.1494 114.905 23.0218 114.905 22.8494V22.8196C114.905 22.4451 114.794 22.1551 114.572 21.9496C114.35 21.7441 114.03 21.6413 113.613 21.6413C113.172 21.6413 112.822 21.7375 112.564 21.9297C112.308 22.1219 112.136 22.349 112.047 22.6108L110.366 22.3722C110.499 21.9081 110.717 21.5204 111.022 21.2088C111.327 20.8939 111.7 20.6586 112.141 20.5028C112.582 20.3438 113.069 20.2642 113.603 20.2642C113.971 20.2642 114.337 20.3073 114.701 20.3935C115.066 20.4796 115.399 20.6222 115.701 20.821C116.002 21.0166 116.244 21.2834 116.426 21.6214C116.612 21.9595 116.705 22.3821 116.705 22.8892V28H114.975V26.951H114.915C114.806 27.1631 114.652 27.362 114.453 27.5476C114.257 27.7299 114.01 27.8774 113.712 27.9901C113.417 28.0994 113.071 28.1541 112.673 28.1541ZM113.14 26.8317C113.502 26.8317 113.815 26.7604 114.08 26.6179C114.345 26.4721 114.549 26.2798 114.691 26.0412C114.837 25.8026 114.91 25.5424 114.91 25.2607V24.3608C114.854 24.4072 114.758 24.4503 114.622 24.4901C114.489 24.5298 114.34 24.5646 114.174 24.5945C114.009 24.6243 113.845 24.6508 113.682 24.674C113.52 24.6972 113.379 24.7171 113.26 24.7337C112.991 24.7701 112.751 24.8298 112.539 24.9126C112.327 24.9955 112.159 25.1115 112.037 25.2607C111.914 25.4065 111.853 25.5954 111.853 25.8274C111.853 26.1589 111.974 26.4091 112.216 26.5781C112.458 26.7472 112.766 26.8317 113.14 26.8317ZM120.314 23.5256V28H118.515V20.3636H120.235V21.6612H120.324C120.5 21.2337 120.78 20.8939 121.164 20.642C121.552 20.3902 122.031 20.2642 122.601 20.2642C123.128 20.2642 123.587 20.3769 123.978 20.6023C124.373 20.8277 124.678 21.1541 124.893 21.5817C125.112 22.0092 125.22 22.5279 125.216 23.1378V28H123.417V23.4162C123.417 22.9058 123.284 22.5064 123.019 22.218C122.757 21.9297 122.394 21.7855 121.93 21.7855C121.615 21.7855 121.335 21.8551 121.09 21.9943C120.848 22.1302 120.657 22.3274 120.518 22.5859C120.382 22.8445 120.314 23.1577 120.314 23.5256ZM130.859 20.3636V21.7557H126.469V20.3636H130.859ZM127.553 18.5341H129.353V25.7031C129.353 25.9451 129.389 26.1307 129.462 26.2599C129.538 26.3859 129.638 26.4721 129.76 26.5185C129.883 26.5649 130.019 26.5881 130.168 26.5881C130.281 26.5881 130.383 26.5798 130.476 26.5632C130.572 26.5466 130.645 26.5317 130.695 26.5185L130.998 27.9254C130.902 27.9586 130.765 27.995 130.586 28.0348C130.41 28.0746 130.194 28.0978 129.939 28.1044C129.489 28.1177 129.083 28.0497 128.721 27.9006C128.36 27.7481 128.073 27.5128 127.861 27.1946C127.652 26.8764 127.55 26.4787 127.553 26.0014V18.5341ZM138.29 22.3821L136.65 22.5611C136.603 22.3954 136.522 22.2396 136.406 22.0938C136.293 21.9479 136.141 21.8303 135.949 21.7408C135.756 21.6513 135.521 21.6065 135.243 21.6065C134.868 21.6065 134.553 21.6877 134.298 21.8501C134.046 22.0125 133.922 22.223 133.925 22.4815C133.922 22.7036 134.003 22.8842 134.169 23.0234C134.338 23.1626 134.616 23.277 135.004 23.3665L136.307 23.6449C137.029 23.8007 137.566 24.0476 137.917 24.3857C138.272 24.7237 138.451 25.1662 138.454 25.7131C138.451 26.1937 138.31 26.6179 138.032 26.9858C137.757 27.3504 137.374 27.6354 136.883 27.8409C136.393 28.0464 135.829 28.1491 135.193 28.1491C134.258 28.1491 133.506 27.9536 132.936 27.5625C132.366 27.1681 132.026 26.6196 131.917 25.9169L133.672 25.7479C133.751 26.0926 133.92 26.3527 134.179 26.5284C134.437 26.7041 134.774 26.7919 135.188 26.7919C135.616 26.7919 135.959 26.7041 136.217 26.5284C136.479 26.3527 136.61 26.1357 136.61 25.8771C136.61 25.6584 136.525 25.4777 136.356 25.3352C136.191 25.1927 135.932 25.0833 135.581 25.0071L134.278 24.7337C133.546 24.5812 133.004 24.3243 132.653 23.9631C132.301 23.5985 132.127 23.1378 132.131 22.581C132.127 22.1103 132.255 21.7027 132.513 21.358C132.775 21.0099 133.138 20.7415 133.602 20.5526C134.069 20.3603 134.608 20.2642 135.218 20.2642C136.113 20.2642 136.817 20.4548 137.331 20.8359C137.848 21.2171 138.168 21.7325 138.29 22.3821Z" fill="#1A71FF"/>
</svg>
